<svg xmlns="http://www.w3.org/2000/svg" viewBox="0 0 24 24" role="img" aria-hidden="true">
  <path fill="#111111" d="M12 .5A12 12 0 0 0 8.2 23.9c.6.1.8-.3.8-.6v-2.2c-3.3.7-4-1.4-4-1.4-.5-1.3-1.2-1.6-1.2-1.6-1-.7.1-.7.1-.7 1.1.1 1.7 1.2 1.7 1.2 1 .1 1.8-.8 2.2-1.2.1-.7.4-1.2.7-1.4-2.6-.3-5.3-1.3-5.3-5.8 0-1.3.5-2.4 1.2-3.3-.1-.3-.5-1.5.1-3.1 0 0 1-.3 3.4 1.2a11.8 11.8 0 0 1 6.2 0c2.4-1.6 3.4-1.2 3.4-1.2.7 1.6.3 2.8.1 3.1.8.9 1.2 2 1.2 3.3 0 4.5-2.8 5.5-5.4 5.8.4.4.8 1.1.8 2.2v3.2c0 .3.2.7.8.6A12 12 0 0 0 12 .5Z"/>
</svg>
