<svg xmlns="http://www.w3.org/2000/svg" viewBox="0 0 24 24" role="img" aria-hidden="true">
  <path fill="#EA4335" d="M12.23 10.18v3.92h5.46c-.24 1.26-.95 2.33-2.01 3.04l3.25 2.52c1.89-1.74 2.98-4.3 2.98-7.34 0-.7-.06-1.38-.18-2.04z"/>
  <path fill="#4285F4" d="M12 22c2.7 0 4.96-.9 6.61-2.44l-3.25-2.52c-.9.6-2.05.96-3.36.96-2.59 0-4.79-1.75-5.58-4.1l-3.35 2.58A10 10 0 0 0 12 22Z"/>
  <path fill="#FBBC05" d="M6.42 13.9a6.02 6.02 0 0 1 0-3.8L3.07 7.52a10 10 0 0 0 0 8.96Z"/>
  <path fill="#34A853" d="M12 5.98c1.47 0 2.78.5 3.82 1.48l2.87-2.87C16.95 2.98 14.69 2 12 2a10 10 0 0 0-8.93 5.52l3.35 2.58C7.21 7.73 9.41 5.98 12 5.98Z"/>
</svg>
