<svg xmlns="http://www.w3.org/2000/svg" viewBox="0 0 960 220" role="img" aria-label="OwnPaper">
  <rect width="960" height="220" rx="32" fill="#f8fbff"/>
  <g transform="translate(42 34) scale(.86)" fill="#1f3b5c">
    <path d="m 148.69583,51.858335 -9.525,-1.058334 -32.27917,0.264584 v 43.391663 l 18.25625,11.112502 1.05833,1.5875 -0.26458,20.37292 -19.05,11.64167 v 58.7375 l 14.55208,0.26458 0.79375,-0.52917 0.26459,-18.25625 h 17.4625 l 10.05416,-1.32291 11.1125,-3.70417 10.05417,-5.82083 5.02708,-3.96875 9.78959,-10.84792 6.35,-11.1125 3.175,-8.73125 2.38125,-12.7 v -12.43542 l -2.38125,-12.700002 -6.35,-15.081246 -6.87917,-9.789583 -10.84792,-9.789583 -10.58333,-5.820834 z m -105.568745,4.7625 -10.05417,6.085416 -9.525,8.995834 -6.879167,9.789583 -5.55625,12.7 -2.6458332,11.906252 -0.529167,12.7 1.5875,11.64167 4.7625002,13.75833 5.820834,9.78958 8.995833,10.05417 8.46667,6.35 9.26041,4.7625 9.26042,2.91042 9.78958,1.32291 h 33.3375 l 0.26459,-39.95208 -19.57917,-11.90625 -0.26458,-20.6375 1.5875,-1.5875 18.25625,-10.847922 V 80.168751 l -29.36875,16.933337 -1.379523,1.186968 -1.001727,1.458862 -0.618681,1.190442 -0.439659,1.45539 v 29.36875 l 1.05834,2.64584 2.38125,2.64583 13.22916,7.67292 -0.26458,14.02291 -21.96042,-0.26458 -10.05416,-2.91042 -7.40834,-4.23333 -7.937497,-7.67292 -5.820833,-9.78958 -3.175,-10.84792 -0.529167,-9.525 1.852084,-10.84791 5.291666,-11.641672 7.408337,-8.73125 7.67291,-5.55625 7.9375,-3.439583 7.67292,-1.5875 35.45417,-0.264584 V 51.064585 h -36.5125 l -8.99584,1.5875 z m 79.374995,15.08125 h 19.57916 l 6.87917,1.322916 7.14375,2.910417 6.61458,4.233333 7.14375,7.143747 4.7625,7.14375 3.175,7.672922 1.5875,6.87917 0.26459,10.05416 -1.5875,8.99584 -3.96875,9.525 -3.70417,5.55625 -6.87917,6.87916 -5.55625,3.70417 -7.9375,3.43958 -7.67291,1.5875 -21.96042,-0.26458 v -11.64167 l 15.08125,-9.26041 2.38125,-2.64584 1.32292,-3.43958 -0.26459,-29.89792 -3.175,-4.497912 -13.49375,-8.20209 z M 83.608335,118.26875 v 5.02709 l 0.52916,0.52916 18.520835,10.58334 1.5875,-0.52917 0.52916,-0.52917 2.64584,-1.32291 1.85208,-1.32292 1.32292,-0.52917 3.175,-2.11666 1.32291,-0.52917 1.85209,-1.32292 4.49791,-2.38125 0.79375,-0.79375 v -4.49791 l -0.52916,-0.26459 -4.23334,2.64584 -2.64583,1.32291 -0.52917,0.52917 -1.32291,0.52917 -3.175,2.11666 -1.32292,0.52917 -1.85208,1.32292 -1.32292,0.52916 -1.85208,1.32292 h -1.05834 l -2.38125,-1.5875 L 98.689585,127 l -0.52917,-0.52916 -1.32292,-0.52917 -0.52916,-0.52917 -3.43959,-1.85208 -0.52916,-0.52917 -1.85209,-0.79375 -1.85208,-1.32291 z m 0,-10.58333 v 4.7625 l 0.52916,0.52917 18.520835,10.58333 1.05833,-0.26458 0.52917,-0.52917 6.35,-3.43958 1.85208,-1.32292 1.32292,-0.52917 0.52916,-0.52916 1.85209,-0.79375 1.85208,-1.32292 3.96875,-2.11667 0.26458,-0.52916 V 107.95 l -0.79375,-0.26458 -5.02708,3.175 -1.32292,0.52917 -5.02708,3.175 -1.32292,0.52916 -1.85208,1.32292 -4.23333,2.11667 -2.38125,-1.5875 -5.027085,-2.64584 -1.85208,-1.32291 -3.175,-1.5875 -3.175,-2.11667 -1.32292,-0.52917 -0.52916,-0.52916 z" fill-rule="evenodd"/>
  </g>
  <text x="238" y="128" fill="#1f3b5c" font-family="Georgia, 'Times New Roman', serif" font-size="76" font-weight="700">OwnPaper</text>
  <text x="242" y="166" fill="#3b82f6" font-family="Arial, sans-serif" font-size="24" font-weight="600" letter-spacing=".08em">CMS EDITORIAL SELF-HOSTED</text>
</svg>
